REM DIRINDEX 1\2,1\3\7,1\3\8,1\4\9,1\4\10,1\4\11,1\5\12,1\5\13,1\5\14,1\6\15,1\6\16,1\6\17
REM DIRNAME "folder01","folder02","folder03","folder04","folder05","folder06","folder07","folder08","folder09","folder10","folder11","folder12","folder13","folder14","folder15","folder16","folder17"
TITLE ""
FILE "2Q_j_1514-1527.mp3" MP3
  TRACK 01 AUDIO
    TITLE "9:cjc174_0761"
    INDEX 01 00:00:00
  TRACK 02 AUDIO
    TITLE "0:"
    INDEX 01 00:01:41
  TRACK 03 AUDIO
    TITLE "10:cjc174_0762"
    INDEX 01 00:02:11
  TRACK 04 AUDIO
    TITLE "0:"
    INDEX 01 00:03:16
  TRACK 05 AUDIO
    TITLE "11:cjc174_0763"
    INDEX 01 00:03:63
  TRACK 06 AUDIO
    TITLE "0:"
    INDEX 01 00:08:37
  TRACK 07 AUDIO
    TITLE "9:cjc174_0764"
    INDEX 01 00:09:13
  TRACK 08 AUDIO
    TITLE "0:"
    INDEX 01 00:10:36
  TRACK 09 AUDIO
    TITLE "10:cjc174_0765"
    INDEX 01 00:11:06
  TRACK 10 AUDIO
    TITLE "0:"
    INDEX 01 00:12:21
  TRACK 11 AUDIO
    TITLE "11:cjc174_0766"
    INDEX 01 00:12:66
  TRACK 12 AUDIO
    TITLE "0:"
    INDEX 01 00:16:64
  TRACK 13 AUDIO
    TITLE "9:cjc174_0767"
    INDEX 01 00:17:38
  TRACK 14 AUDIO
    TITLE "0:"
    INDEX 01 00:18:55
  TRACK 15 AUDIO
    TITLE "10:cjc174_0768"
    INDEX 01 00:19:23
  TRACK 16 AUDIO
    TITLE "0:"
    INDEX 01 00:21:58
  TRACK 17 AUDIO
    TITLE "11:cjc174_0769"
    INDEX 01 00:22:28
  TRACK 18 AUDIO
    TITLE "0:"
    INDEX 01 00:26:19
  TRACK 19 AUDIO
    TITLE "9:cjc174_0770"
    INDEX 01 00:26:66
  TRACK 20 AUDIO
    TITLE "0:"
    INDEX 01 00:28:01
  TRACK 21 AUDIO
    TITLE "10:cjc174_0771"
    INDEX 01 00:28:50
  TRACK 22 AUDIO
    TITLE "0:"
    INDEX 01 00:32:06
  TRACK 23 AUDIO
    TITLE "11:cjc174_0772"
    INDEX 01 00:32:51
  TRACK 24 AUDIO
    TITLE "0:"
    INDEX 01 00:37:17
  TRACK 25 AUDIO
    TITLE "9:cjc174_0773"
    INDEX 01 00:37:64
  TRACK 26 AUDIO
    TITLE "0:"
    INDEX 01 00:39:06
  TRACK 27 AUDIO
    TITLE "10:cjc174_0774"
    INDEX 01 00:39:59
  TRACK 28 AUDIO
    TITLE "0:"
    INDEX 01 00:42:42
  TRACK 29 AUDIO
    TITLE "11:cjc174_0775"
    INDEX 01 00:43:12
  TRACK 30 AUDIO
    TITLE "0:"
    INDEX 01 00:48:17
  TRACK 31 AUDIO
    TITLE "9:cjc174_0776"
    INDEX 01 00:48:66
  TRACK 32 AUDIO
    TITLE "0:"
    INDEX 01 00:50:22
  TRACK 33 AUDIO
    TITLE "10:cjc174_0777"
    INDEX 01 00:50:65
  TRACK 34 AUDIO
    TITLE "0:"
    INDEX 01 00:52:40
  TRACK 35 AUDIO
    TITLE "11:cjc174_0778"
    INDEX 01 00:53:10
  TRACK 36 AUDIO
    TITLE "0:"
    INDEX 01 00:57:40
  TRACK 37 AUDIO
    TITLE "9:cjc174_0779"
    INDEX 01 00:58:14
  TRACK 38 AUDIO
    TITLE "0:"
    INDEX 01 00:59:48
  TRACK 39 AUDIO
    TITLE "10:cjc174_0780"
    INDEX 01 01:00:22
  TRACK 40 AUDIO
    TITLE "0:"
    INDEX 01 01:01:65
  TRACK 41 AUDIO
    TITLE "11:cjc174_0781"
    INDEX 01 01:02:35
  TRACK 42 AUDIO
    TITLE "0:"
    INDEX 01 01:05:08
  TRACK 43 AUDIO
    TITLE "9:cjc174_0782"
    INDEX 01 01:05:53
  TRACK 44 AUDIO
    TITLE "0:"
    INDEX 01 01:07:32
  TRACK 45 AUDIO
    TITLE "10:cjc174_0783"
    INDEX 01 01:08:04
  TRACK 46 AUDIO
    TITLE "0:"
    INDEX 01 01:10:60
  TRACK 47 AUDIO
    TITLE "11:cjc174_0784"
    INDEX 01 01:11:28
  TRACK 48 AUDIO
    TITLE "0:"
    INDEX 01 01:15:61
  TRACK 49 AUDIO
    TITLE "9:cjc174_0785"
    INDEX 01 01:16:33
  TRACK 50 AUDIO
    TITLE "0:"
    INDEX 01 01:17:58
  TRACK 51 AUDIO
    TITLE "10:cjc174_0786"
    INDEX 01 01:18:30
  TRACK 52 AUDIO
    TITLE "0:"
    INDEX 01 01:20:31
  TRACK 53 AUDIO
    TITLE "11:cjc174_0787"
    INDEX 01 01:21:01
  TRACK 54 AUDIO
    TITLE "0:"
    INDEX 01 01:26:14
  TRACK 55 AUDIO
    TITLE "9:cjc174_0788"
    INDEX 01 01:26:59
  TRACK 56 AUDIO
    TITLE "0:"
    INDEX 01 01:28:24
  TRACK 57 AUDIO
    TITLE "10:cjc174_0789"
    INDEX 01 01:28:72
  TRACK 58 AUDIO
    TITLE "0:"
    INDEX 01 01:32:58
  TRACK 59 AUDIO
    TITLE "11:cjc174_0790"
    INDEX 01 01:33:26
  TRACK 60 AUDIO
    TITLE "0:"
    INDEX 01 01:36:24
  TRACK 61 AUDIO
    TITLE "9:cjc174_0791"
    INDEX 01 01:36:69
  TRACK 62 AUDIO
    TITLE "0:"
    INDEX 01 01:38:17
  TRACK 63 AUDIO
    TITLE "10:cjc174_0792"
    INDEX 01 01:38:62
  TRACK 64 AUDIO
    TITLE "0:"
    INDEX 01 01:41:10
  TRACK 65 AUDIO
    TITLE "11:cjc174_0793"
    INDEX 01 01:41:57
  TRACK 66 AUDIO
    TITLE "0:"
    INDEX 01 01:45:56
  TRACK 67 AUDIO
    TITLE "9:cjc174_0794"
    INDEX 01 01:46:24
  TRACK 68 AUDIO
    TITLE "0:"
    INDEX 01 01:47:45
  TRACK 69 AUDIO
    TITLE "10:cjc174_0795"
    INDEX 01 01:48:15
  TRACK 70 AUDIO
    TITLE "0:"
    INDEX 01 01:50:14
  TRACK 71 AUDIO
    TITLE "11:cjc174_0796"
    INDEX 01 01:50:57
  TRACK 72 AUDIO
    TITLE "0:"
    INDEX 01 01:56:07
  TRACK 73 AUDIO
    TITLE "9:cjc174_0797"
    INDEX 01 01:56:52
  TRACK 74 AUDIO
    TITLE "0:"
    INDEX 01 01:57:69
  TRACK 75 AUDIO
    TITLE "10:cjc174_0798"
    INDEX 01 01:58:41
  TRACK 76 AUDIO
    TITLE "0:"
    INDEX 01 02:02:41
  TRACK 77 AUDIO
    TITLE "11:cjc174_0799"
    INDEX 01 02:03:11
  TRACK 78 AUDIO
    TITLE "0:"
    INDEX 01 02:08:14
  TRACK 79 AUDIO
    TITLE "9:cjc174_0800"
    INDEX 01 02:08:61
  TRACK 80 AUDIO
    TITLE "0:"
    INDEX 01 02:09:74
  TRACK 81 AUDIO
    TITLE "10:cjc174_0801"
    INDEX 01 02:10:44
  TRACK 82 AUDIO
    TITLE "0:"
    INDEX 01 02:12:22
  TRACK 83 AUDIO
    TITLE "11:cjc174_0802"
    INDEX 01 02:12:65
  TRACK 84 AUDIO
    TITLE "0:"
    INDEX 01 02:17:05
